<svg width="32" height="30" viewBox="0 0 32 30" fill="none" xmlns="http://www.w3.org/2000/svg">
<path d="M10.932 2.006C10.932 0.9 11.832 0 12.94 0H18.96C20.068 0 20.966 0.9 20.966 2.006V8.026C20.966 8.19933 20.9453 8.366 20.904 8.526C20.944 8.68733 20.9646 8.85467 20.966 9.028V14.046H23.474V10.032C23.474 9.63285 23.6325 9.25005 23.9148 8.9678C24.197 8.68556 24.5798 8.527 24.979 8.527C25.3781 8.527 25.7609 8.68556 26.0432 8.9678C26.3254 9.25005 26.484 9.63285 26.484 10.032V14.046H30.498C30.8968 14.046 31.2794 14.2045 31.5614 14.4865C31.8435 14.7686 32.002 15.1511 32.002 15.55C32.002 15.9489 31.8435 16.3314 31.5614 16.6135C31.2794 16.8955 30.8968 17.054 30.498 17.054H26.42C26.124 20.704 24.744 23.614 22.554 25.674C20.088 27.994 16.746 29.094 13.188 29.094C9.93996 29.094 6.87196 28.178 4.48196 26.252C2.07596 24.31 0.46996 21.432 0.0219597 17.734C-0.23404 15.614 1.52596 14.046 3.40596 14.046H3.90596V9.028C3.90596 7.92 4.80596 7.022 5.91396 7.022H10.93L10.932 2.006ZM10.932 10.032H6.91996V14.046H10.932V10.032ZM3.40796 17.054C3.26396 17.054 3.14796 17.114 3.08196 17.184C3.05622 17.2075 3.03646 17.2369 3.02428 17.2696C3.01211 17.3022 3.00789 17.3374 3.01196 17.372C3.37596 20.366 4.63396 22.504 6.37396 23.908C8.13196 25.328 10.494 26.084 13.19 26.084C16.142 26.084 18.694 25.176 20.494 23.484C22.024 22.044 23.12 19.938 23.402 17.054H3.40796ZM13.942 14.046H17.954V10.032H13.942V14.046ZM13.942 7.022H17.954V3.01H13.942V7.022Z" fill="#2B49C5"/>
</svg>
