<svg width="30" height="30" viewBox="0 0 30 30" fill="none" xmlns="http://www.w3.org/2000/svg">
<path d="M14.8333 0C23.0258 0 29.6667 6.64088 29.6667 14.8333C29.6667 23.0258 23.0258 29.6667 14.8333 29.6667C6.64088 29.6667 0 23.0258 0 14.8333C0 6.64088 6.64088 0 14.8333 0ZM14.8333 2.96667C11.6861 2.96667 8.66776 4.2169 6.44233 6.44233C4.2169 8.66776 2.96667 11.6861 2.96667 14.8333C2.96667 17.9806 4.2169 20.9989 6.44233 23.2243C8.66776 25.4498 11.6861 26.7 14.8333 26.7C17.9806 26.7 20.9989 25.4498 23.2243 23.2243C25.4498 20.9989 26.7 17.9806 26.7 14.8333C26.7 11.6861 25.4498 8.66776 23.2243 6.44233C20.9989 4.2169 17.9806 2.96667 14.8333 2.96667ZM14.8333 5.93333C15.1967 5.93338 15.5473 6.06677 15.8188 6.30819C16.0903 6.54962 16.2638 6.88229 16.3063 7.24312L16.3167 7.41667V14.2192L20.3321 18.2346C20.5981 18.5016 20.7525 18.8597 20.764 19.2364C20.7755 19.6131 20.6432 19.9801 20.394 20.2627C20.1447 20.5454 19.7972 20.7226 19.4221 20.7584C19.0469 20.7941 18.6722 20.6857 18.3741 20.4552L18.2346 20.3321L13.7846 15.882C13.5541 15.6513 13.406 15.351 13.3633 15.0276L13.35 14.8333V7.41667C13.35 7.02326 13.5063 6.64597 13.7845 6.36779C14.0626 6.08961 14.4399 5.93333 14.8333 5.93333Z" fill="#FF7700"/>
</svg>
