<svg width="35" height="22" viewBox="0 0 35 22" fill="none" xmlns="http://www.w3.org/2000/svg">
<path d="M34.615 2.2232C34.8468 1.9726 34.9731 1.64114 34.9671 1.29866C34.9611 0.956175 34.8233 0.629408 34.5828 0.387198C34.3424 0.144989 34.0179 0.00624866 33.6779 0.00020596C33.3379 -0.00583674 33.0088 0.12129 32.76 0.354804L19.635 13.5746C19.506 13.6956 19.4026 13.8416 19.3309 14.0037C19.2591 14.1659 19.2206 14.3409 19.2175 14.5184C19.2144 14.6959 19.2468 14.8723 19.3128 15.0369C19.3788 15.2015 19.4771 15.351 19.6017 15.4765C19.7263 15.6021 19.8748 15.701 20.0382 15.7675C20.2016 15.834 20.3767 15.8667 20.5529 15.8635C20.7291 15.8604 20.9029 15.8216 21.0639 15.7493C21.2249 15.677 21.3698 15.5729 21.49 15.443L34.615 2.2232ZM34.9072 4.42297C34.9691 4.72027 35 5.02697 35 5.34307V17.5053C35 18.0955 34.8846 18.68 34.6603 19.2253C34.4361 19.7707 34.1073 20.2662 33.693 20.6835C33.2786 21.1009 32.7866 21.432 32.2452 21.6579C31.7038 21.8837 31.1235 22 30.5375 22H4.4625C3.87648 22 3.29619 21.8837 2.75478 21.6579C2.21336 21.432 1.72142 21.1009 1.30704 20.6835C0.892654 20.2662 0.563949 19.7707 0.339688 19.2253C0.115426 18.68 0 18.0955 0 17.5053V5.34307C0 4.15099 0.470155 3.00774 1.30704 2.16482C2.14392 1.32189 3.27897 0.848343 4.4625 0.848343H29.7937L27.1687 3.4923H4.4625C3.4475 3.4923 2.625 4.32074 2.625 5.34307V17.5053C2.625 18.5276 3.4475 19.356 4.4625 19.356H30.5375C31.5525 19.356 32.375 18.5276 32.375 17.5053V6.97351L34.9072 4.42297ZM4.375 8.33955C4.375 7.98894 4.51328 7.65269 4.75942 7.40478C5.00556 7.15686 5.3394 7.01758 5.6875 7.01758H9.1875C9.5356 7.01758 9.86944 7.15686 10.1156 7.40478C10.3617 7.65269 10.5 7.98894 10.5 8.33955C10.5 8.69017 10.3617 9.02642 10.1156 9.27433C9.86944 9.52225 9.5356 9.66153 9.1875 9.66153H5.6875C5.3394 9.66153 5.00556 9.52225 4.75942 9.27433C4.51328 9.02642 4.375 8.69017 4.375 8.33955ZM4.375 14.5088C4.375 14.1582 4.51328 13.8219 4.75942 13.574C5.00556 13.3261 5.3394 13.1868 5.6875 13.1868H14.4375C14.7856 13.1868 15.1194 13.3261 15.3656 13.574C15.6117 13.8219 15.75 14.1582 15.75 14.5088C15.75 14.8594 15.6117 15.1956 15.3656 15.4436C15.1194 15.6915 14.7856 15.8308 14.4375 15.8308H5.6875C5.3394 15.8308 5.00556 15.6915 4.75942 15.4436C4.51328 15.1956 4.375 14.8594 4.375 14.5088Z" fill="#FFC700"/>
</svg>
